<?xml version="1.0" encoding="UTF-8" standalone="no"?>
<!-- Created with Inkscape (http://www.inkscape.org/) -->

<svg
   width="119.90297mm"
   height="95.240685mm"
   viewBox="0 0 453.17658 359.9648"
   version="1.1"
   id="svg1"
   inkscape:version="1.4 (e7c3feb100, 2024-10-09)"
   sodipodi:docname="venn.svg"
   xmlns:inkscape="http://www.inkscape.org/namespaces/inkscape"
   xmlns:sodipodi="http://sodipodi.sourceforge.net/DTD/sodipodi-0.dtd"
   xmlns="http://www.w3.org/2000/svg"
   xmlns:svg="http://www.w3.org/2000/svg"
   xmlns:ns1="http://www.iki.fi/pav/software/textext/">
  <sodipodi:namedview
     id="namedview1"
     pagecolor="#ffffff"
     bordercolor="#000000"
     borderopacity="0.25"
     inkscape:showpageshadow="2"
     inkscape:pageopacity="0.0"
     inkscape:pagecheckerboard="0"
     inkscape:deskcolor="#d1d1d1"
     inkscape:document-units="mm"
     inkscape:zoom="1"
     inkscape:cx="448"
     inkscape:cy="366"
     inkscape:window-width="1600"
     inkscape:window-height="818"
     inkscape:window-x="0"
     inkscape:window-y="0"
     inkscape:window-maximized="1"
     inkscape:current-layer="g2784">
    <inkscape:page
       x="9.6818593e-15"
       y="1.0422271e-14"
       width="453.17657"
       height="359.96481"
       id="page2"
       margin="0"
       bleed="0" />
  </sodipodi:namedview>
  <defs
     id="defs1" />
  <g
     inkscape:label="Layer 1"
     inkscape:groupmode="layer"
     id="layer1"
     transform="translate(-294.72501,-176.28318)">
    <circle
       style="fill:none;fill-opacity:0.15;stroke:#000000;stroke-opacity:1"
       id="circle1"
       cx="606.51965"
       cy="394.86612"
       r="140.8819" />
    <circle
       style="fill:none;fill-opacity:0.15;stroke:#000000;stroke-opacity:1"
       id="circle4"
       cx="606.51965"
       cy="394.86612"
       r="140.8819" />
    <circle
       style="fill:none;fill-opacity:0.15;stroke:#000000;stroke-opacity:1"
       id="circle5"
       cx="436.1069"
       cy="394.86612"
       r="140.8819" />
    <g
       id="g2709"
       transform="matrix(5.2929928,0,0,5.2929928,418.03894,187.57685)"
       ns1:version="1.12.0"
       ns1:texconverter="pdflatex"
       ns1:pdfconverter="inkscape"
       ns1:text="A"
       ns1:preamble="/home/deck/.config/inkscape/extensions/textext/default_packages.tex"
       ns1:scale="1.8209965474037497"
       ns1:alignment="middle center"
       ns1:jacobian_sqrt="2.42799">
      <defs
         id="defs3316" />
      <g
         fill="#000000"
         fill-opacity="1"
         id="g2512"
         transform="translate(-149.025,-127.624)">
        <g
           transform="translate(148.712,134.765)"
           id="g111">
          <path
             d="m 3.96875,-6.9375 c -0.046875,-0.125 -0.078125,-0.203125 -0.234375,-0.203125 -0.15625,0 -0.1875,0.0625 -0.234375,0.203125 L 1.4375,-0.984375 C 1.25,-0.46875 0.859375,-0.3125 0.3125,-0.3125 V 0 c 0.234375,-0.015625 0.671875,-0.03125 1.015625,-0.03125 0.3125,0 0.828125,0.015625 1.15625,0.03125 v -0.3125 c -0.5,0 -0.75,-0.25 -0.75,-0.5 0,-0.03125 0.015625,-0.140625 0.015625,-0.15625 L 2.21875,-2.265625 H 4.671875 L 5.203125,-0.75 c 0.015625,0.046875 0.03125,0.109375 0.03125,0.140625 0,0.296875 -0.5625,0.296875 -0.828125,0.296875 V 0 c 0.359375,-0.03125 1.0625,-0.03125 1.4375,-0.03125 0.421875,0 0.890625,0.015625 1.296875,0.03125 V -0.3125 H 6.96875 C 6.375,-0.3125 6.234375,-0.375 6.125,-0.703125 Z m -0.53125,1.109375 1.125,3.25 H 2.328125 Z m 0,0"
             id="path5713" />
        </g>
      </g>
    </g>
    <g
       id="g2429"
       transform="matrix(5.5479305,0,0,5.5479305,589.52704,176.28597)"
       ns1:version="1.12.0"
       ns1:texconverter="pdflatex"
       ns1:pdfconverter="inkscape"
       ns1:text="B"
       ns1:preamble="/home/deck/.config/inkscape/extensions/textext/default_packages.tex"
       ns1:scale="1.8209965474037497"
       ns1:alignment="middle center"
       ns1:jacobian_sqrt="2.42799">
      <defs
         id="defs7014" />
      <g
         fill="#000000"
         fill-opacity="1"
         id="g3594"
         transform="translate(-149.071,-127.953)">
        <g
           transform="translate(148.712,134.765)"
           id="g3708">
          <path
             d="m 2.21875,-3.65625 v -2.4375 C 2.21875,-6.4375 2.234375,-6.5 2.703125,-6.5 H 3.9375 c 0.96875,0 1.3125,0.84375 1.3125,1.375 0,0.640625 -0.484375,1.46875 -1.59375,1.46875 z M 4.5625,-3.5625 C 5.53125,-3.75 6.21875,-4.390625 6.21875,-5.125 6.21875,-5.984375 5.296875,-6.8125 4,-6.8125 H 0.359375 V -6.5 H 0.59375 c 0.765625,0 0.796875,0.109375 0.796875,0.46875 v 5.25 c 0,0.359375 -0.03125,0.46875 -0.796875,0.46875 H 0.359375 V 0 h 3.90625 c 1.328125,0 2.21875,-0.890625 2.21875,-1.828125 0,-0.859375 -0.8125,-1.609375 -1.921875,-1.734375 z m -0.609375,3.25 h -1.25 c -0.46875,0 -0.484375,-0.0625 -0.484375,-0.390625 v -2.71875 h 1.875 C 5.078125,-3.421875 5.5,-2.5 5.5,-1.828125 5.5,-1.125 4.96875,-0.3125 3.953125,-0.3125 Z m 0,0"
             id="path1015" />
        </g>
      </g>
    </g>
    <circle
       style="fill:#000000;fill-opacity:1;stroke:#000000;stroke-opacity:1"
       id="path5"
       cx="368.98834"
       cy="360.62445"
       r="6.3639612" />
    <circle
       style="fill:#000000;fill-opacity:1;stroke:#000000;stroke-opacity:1"
       id="path5-6"
       cx="414.61453"
       cy="455.61627"
       r="6.3639612" />
    <circle
       style="fill:#000000;fill-opacity:1;stroke:#000000;stroke-opacity:1"
       id="path5-2"
       cx="523.45917"
       cy="391.58325"
       r="6.3639612" />
    <circle
       style="fill:#000000;fill-opacity:1;stroke:#000000;stroke-opacity:1"
       id="path5-2-7"
       cx="631.76703"
       cy="326.08218"
       r="6.3639612" />
    <g
       id="g2784"
       transform="matrix(2.42799,0,0,2.42799,452.513,324.511)"
       ns1:version="1.12.0"
       ns1:texconverter="pdflatex"
       ns1:pdfconverter="inkscape"
       ns1:text="a b c d"
       ns1:preamble="/home/deck/.config/inkscape/extensions/textext/default_packages.tex"
       ns1:scale="1.8209965474037497"
       ns1:alignment="middle center"
       ns1:jacobian_sqrt="2.42799">
      <defs
         id="defs7572" />
      <g
         fill="#000000"
         fill-opacity="1"
         id="g1347"
         transform="translate(-185.78461,-126.09561)">
        <g
           transform="translate(148.712,134.765)"
           id="g7409">
          <path
             d="m 3.3125,-0.75 c 0.046875,0.390625 0.3125,0.8125 0.78125,0.8125 0.21875,0 0.828125,-0.140625 0.828125,-0.953125 v -0.5625 h -0.25 v 0.5625 c 0,0.578125 -0.25,0.640625 -0.359375,0.640625 -0.328125,0 -0.375,-0.453125 -0.375,-0.5 v -1.984375 c 0,-0.421875 0,-0.8125 -0.359375,-1.1875 C 3.1875,-4.3125 2.6875,-4.46875 2.21875,-4.46875 c -0.828125,0 -1.515625,0.46875 -1.515625,1.125 0,0.296875 0.203125,0.46875 0.46875,0.46875 0.28125,0 0.453125,-0.203125 0.453125,-0.453125 0,-0.125 -0.046875,-0.453125 -0.515625,-0.453125 C 1.390625,-4.140625 1.875,-4.25 2.1875,-4.25 c 0.5,0 1.0625,0.390625 1.0625,1.28125 v 0.359375 c -0.515625,0.03125 -1.203125,0.0625 -1.828125,0.359375 -0.75,0.34375 -1,0.859375 -1,1.296875 0,0.8125 0.96875,1.0625 1.59375,1.0625 0.65625,0 1.109375,-0.40625 1.296875,-0.859375 z M 3.25,-2.390625 v 1 c 0,0.9375 -0.71875,1.28125 -1.171875,1.28125 -0.484375,0 -0.890625,-0.34375 -0.890625,-0.84375 0,-0.546875 0.421875,-1.375 2.0625,-1.4375 z m 0,0"
             id="path1492" />
        </g>
      </g>
      <g
         fill="#000000"
         fill-opacity="1"
         id="g5281"
         transform="translate(-130.52526,-112.69897)">
        <g
           transform="translate(157.011,134.765)"
           id="g9899">
          <path
             d="m 1.71875,-3.765625 v -3.15625 L 0.28125,-6.8125 V -6.5 c 0.703125,0 0.78125,0.0625 0.78125,0.5625 V 0 h 0.25 c 0,-0.015625 0.078125,-0.15625 0.359375,-0.625 0.140625,0.234375 0.5625,0.734375 1.296875,0.734375 1.1875,0 2.21875,-0.984375 2.21875,-2.265625 0,-1.265625 -0.96875,-2.25 -2.109375,-2.25 -0.78125,0 -1.203125,0.46875 -1.359375,0.640625 z m 0.03125,2.625 V -3.1875 c 0,-0.1875 0,-0.203125 0.109375,-0.359375 C 2.25,-4.109375 2.796875,-4.1875 3.03125,-4.1875 c 0.453125,0 0.8125,0.265625 1.046875,0.640625 0.265625,0.40625 0.28125,0.96875 0.28125,1.390625 0,0.359375 -0.015625,0.953125 -0.296875,1.40625 -0.21875,0.3125 -0.59375,0.640625 -1.125,0.640625 -0.453125,0 -0.8125,-0.234375 -1.046875,-0.609375 C 1.75,-0.921875 1.75,-0.953125 1.75,-1.140625 Z m 0,0"
             id="path4666" />
        </g>
      </g>
      <g
         fill="#000000"
         fill-opacity="1"
         id="g3206"
         transform="translate(-94.28803,-139.78349)">
        <g
           transform="translate(165.874,134.765)"
           id="g5406">
          <path
             d="m 1.171875,-2.171875 c 0,-1.625 0.8125,-2.046875 1.34375,-2.046875 0.09375,0 0.71875,0.015625 1.0625,0.375 -0.40625,0.03125 -0.46875,0.328125 -0.46875,0.453125 0,0.265625 0.1875,0.453125 0.453125,0.453125 0.265625,0 0.46875,-0.15625 0.46875,-0.46875 0,-0.671875 -0.765625,-1.0625 -1.53125,-1.0625 -1.25,0 -2.15625,1.078125 -2.15625,2.3125 0,1.28125 0.984375,2.265625 2.140625,2.265625 1.328125,0 1.65625,-1.203125 1.65625,-1.296875 0,-0.09375 -0.109375,-0.09375 -0.140625,-0.09375 -0.078125,0 -0.109375,0.03125 -0.125,0.09375 -0.28125,0.921875 -0.9375,1.046875 -1.296875,1.046875 -0.53125,0 -1.40625,-0.421875 -1.40625,-2.03125 z m 0,0"
             id="path7003" />
        </g>
      </g>
      <g
         fill="#000000"
         fill-opacity="1"
         id="g1008"
         transform="translate(-192.02487,-87.361843)">
        <g
           transform="translate(173.619,134.765)"
           id="g4750">
          <path
             d="m 3.78125,-0.546875 v 0.65625 L 5.25,0 v -0.3125 c -0.6875,0 -0.78125,-0.0625 -0.78125,-0.5625 V -6.921875 L 3.046875,-6.8125 V -6.5 c 0.6875,0 0.765625,0.0625 0.765625,0.5625 v 2.15625 c -0.28125,-0.359375 -0.71875,-0.625 -1.25,-0.625 -1.171875,0 -2.21875,0.984375 -2.21875,2.265625 0,1.265625 0.96875,2.25 2.109375,2.25 0.640625,0 1.078125,-0.34375 1.328125,-0.65625 z m 0,-2.671875 v 2.046875 c 0,0.171875 0,0.1875 -0.109375,0.359375 C 3.375,-0.328125 2.9375,-0.109375 2.5,-0.109375 2.046875,-0.109375 1.6875,-0.375 1.453125,-0.75 1.203125,-1.15625 1.171875,-1.71875 1.171875,-2.140625 1.171875,-2.5 1.1875,-3.09375 1.46875,-3.546875 1.6875,-3.859375 2.0625,-4.1875 2.609375,-4.1875 c 0.34375,0 0.765625,0.15625 1.0625,0.59375 0.109375,0.171875 0.109375,0.1875 0.109375,0.375 z m 0,0"
             id="path7434" />
        </g>
      </g>
    </g>
  </g>
</svg>
