<?xml version="1.0" encoding="UTF-8" standalone="no"?>
<!-- Created with Inkscape (http://www.inkscape.org/) -->

<svg
   version="1.1"
   id="svg1"
   width="266.66666"
   height="266.66666"
   viewBox="0 0 266.66666 266.66666"
   xmlns="http://www.w3.org/2000/svg"
   xmlns:svg="http://www.w3.org/2000/svg">
  <defs
     id="defs1">
    <clipPath
       clipPathUnits="userSpaceOnUse"
       id="clipPath1">
      <path
         d="M 0,0 H 200 V 200 H 0 Z"
         transform="matrix(10,0,0,10,0,-2.5000001e-5)"
         id="path1" />
    </clipPath>
    <clipPath
       clipPathUnits="userSpaceOnUse"
       id="clipPath2">
      <path
         d="M 0,0 H 200 V 200 H 0 Z"
         transform="matrix(10,0,0,10,0,-2.5000001e-5)"
         id="path2" />
    </clipPath>
    <clipPath
       clipPathUnits="userSpaceOnUse"
       id="clipPath3">
      <path
         d="M 0,0 H 200 V 200 H 0 Z"
         transform="matrix(10,0,0,10,0,-2.5000001e-5)"
         id="path3" />
    </clipPath>
    <clipPath
       clipPathUnits="userSpaceOnUse"
       id="clipPath4">
      <path
         d="M 0,0 H 200 V 200 H 0 Z"
         transform="matrix(10,0,0,10,0,-2.5000001e-5)"
         id="path4" />
    </clipPath>
  </defs>
  <g
     id="g1">
    <g
       id="g8">
      <path
         d="m 977.141,2.5 v 1995"
         style="fill:none;stroke:#ff0000;stroke-width:5;stroke-linecap:round;stroke-linejoin:round;stroke-miterlimit:10;stroke-dasharray:none;stroke-opacity:1"
         transform="matrix(0.13333333,0,0,-0.13333333,0,266.66533)"
         clip-path="url(#clipPath1)"
         id="path5" />
      <path
         d="m 2.5,975.094 h 1995"
         style="fill:none;stroke:#ff0000;stroke-width:5;stroke-linecap:round;stroke-linejoin:round;stroke-miterlimit:10;stroke-dasharray:none;stroke-opacity:1"
         transform="matrix(0.13333333,0,0,-0.13333333,0,266.66533)"
         clip-path="url(#clipPath2)"
         id="path6" />
      <path
         d="m 2.5,955.641 19.4922,-0.399 19.4922,-0.41 19.4961,-0.434 19.4922,-0.449 19.4921,-0.469 19.4922,-0.492 19.492,-0.515 19.492,-0.535 19.497,-0.567 19.492,-0.594 19.492,-0.625 19.492,-0.656 19.492,-0.691 19.492,-0.731 19.497,-0.769 19.492,-0.817 19.492,-0.867 19.492,-0.922 19.492,-0.98 19.492,-1.047 19.497,-1.117 19.492,-1.2 19.492,-1.285 19.492,-1.386 19.492,-1.496 19.493,-1.622 19.496,-1.761 19.492,-1.922 19.492,-2.106 19.492,-2.312 19.492,-2.563 19.493,-2.843 19.496,-3.176 19.492,-3.578 19.492,-4.051 19.492,-4.633 19.492,-5.344 19.493,-6.234 19.496,-7.367 19.492,-8.844 19.492,-10.805 19.492,-13.507 19.492,-17.368 19.493,-23.16 19.496,-32.418 19.492,-48.629 19.492,-81.05 L 938.156,488.797 957.648,2.5"
         style="fill:none;stroke:#000000;stroke-width:5;stroke-linecap:round;stroke-linejoin:round;stroke-miterlimit:10;stroke-dasharray:none;stroke-opacity:1"
         transform="matrix(0.13333333,0,0,-0.13333333,0,266.66533)"
         clip-path="url(#clipPath3)"
         id="path7" />
      <path
         d="m 996.637,1947.68 19.493,-486.29 19.49,-162.1 19.49,-81.05 19.5,-48.63 19.49,-32.42 19.49,-23.15 19.5,-17.37 19.49,-13.51 19.49,-10.81 19.49,-8.84 19.49,-7.37 19.5,-6.23 19.49,-5.35 19.5,-4.63 19.49,-4.05 19.49,-3.58 19.49,-3.17 19.5,-2.85 19.49,-2.56 19.49,-2.31 19.49,-2.11 19.5,-1.92 19.49,-1.76 19.49,-1.62 19.5,-1.5 19.49,-1.39 19.49,-1.28 19.49,-1.2 19.5,-1.12 19.49,-1.05 19.49,-0.98 19.5,-0.91 19.49,-0.87 19.49,-0.82 19.49,-0.77 19.5,-0.73 19.49,-0.69 19.49,-0.66 19.5,-0.624 19.49,-0.593 19.49,-0.563 19.5,-0.539 19.49,-0.516 19.49,-0.488 19.49,-0.473 19.49,-0.449 19.5,-0.43 19.49,-0.414 19.5,-0.398"
         style="fill:none;stroke:#000000;stroke-width:5;stroke-linecap:round;stroke-linejoin:round;stroke-miterlimit:10;stroke-dasharray:none;stroke-opacity:1"
         transform="matrix(0.13333333,0,0,-0.13333333,0,266.66533)"
         clip-path="url(#clipPath4)"
         id="path8" />
    </g>
    <path
       id="path9"
       d="M 3.1398594,1.3345625 C 2.8234531,1.7915938 2.3547031,2.20175 1.7687656,2.20175 c -0.140625,0 -0.7148437,-0.023437 -0.90234373,-0.5742187 0.046875,0.011719 0.10546875,0.011719 0.12890625,0.011719 0.35156248,0 0.59765628,-0.3164062 0.59765628,-0.5859375 0,-0.28125 -0.234375,-0.375 -0.4101563,-0.375 -0.18749998,0 -0.60937498,0.140625 -0.60937498,0.7265625 0,0.609375 0.51562498,1.03125 1.19531248,1.03125 1.1953125,0 2.4023438,-1.1015625 2.7421875,-2.42578125 l 1.171875,-4.66406245 c 0.011719,-0.058594 0.035156,-0.1289063 0.035156,-0.1992188 0,-0.1757812 -0.1523438,-0.3046875 -0.328125,-0.3046875 -0.1054688,0 -0.3632813,0.046875 -0.4570313,0.4101563 l -0.8789062,3.515625 c -0.058594,0.2109375 -0.058594,0.23437495 -0.1523438,0.37499995 -0.2460937,0.328125 -0.6445312,0.73828125 -1.2070312,0.73828125 -0.6796875,0 -0.7382813,-0.65625 -0.7382813,-0.984375 0,-0.6796875 0.328125,-1.6054687 0.6445313,-2.4609375 0.140625,-0.3515625 0.2109375,-0.515625 0.2109375,-0.75 0,-0.5039062 -0.3632813,-0.9609375 -0.9492188,-0.9609375 -1.10156248,0 -1.53515623,1.734375 -1.53515623,1.828125 0,0.046875 0.046875,0.1054688 0.12890625,0.1054688 0.10546875,0 0.1171875,-0.046875 0.1640625,-0.2109375 0.29296875,-1.0078125 0.73828128,-1.4765625 1.20703128,-1.4765625 0.1054687,0 0.3164062,0 0.3164062,0.3867187 0,0.3164063 -0.140625,0.65625 -0.3164062,1.1132813 -0.5859375,1.5703125 -0.5859375,1.9570312 -0.5859375,2.25 0,1.1367187 0.8085937,1.3945312 1.40625,1.3945312 0.3515625,0 0.7851562,-0.10546875 1.1953125,-0.55078125 L 3.8547031,-0.42325 C 3.6789219,0.279875 3.5617344,0.748625 3.1398594,1.3345625 Z m 0,0"
       style="fill:#ff0000;fill-opacity:1;fill-rule:nonzero;stroke:none"
       aria-label="y"
       transform="matrix(1.3333333,0,0,1.3333333,117.32133,9.1893333)" />
    <path
       id="path10"
       d="m 5.6597187,-4.8763437 c -0.375,0.070312 -0.515625,0.3515625 -0.515625,0.5859375 0,0.28125 0.2226563,0.375 0.3867188,0.375 0.3632812,0 0.609375,-0.3046875 0.609375,-0.6328125 0,-0.4921875 -0.5742188,-0.7265625 -1.078125,-0.7265625 -0.7265625,0 -1.125,0.7148437 -1.2421875,0.9492187 -0.2695313,-0.9023437 -1.0078125,-0.9492187 -1.2304688,-0.9492187 -1.21875,0 -1.8632812,1.5703125 -1.8632812,1.828125 0,0.046875 0.046875,0.1054687 0.12890625,0.1054687 0.10546875,0 0.12890625,-0.070312 0.15234375,-0.1171875 0.3984375,-1.3242187 1.2070312,-1.5703125 1.546875,-1.5703125 0.5390625,0 0.6445312,0.4921875 0.6445312,0.7851563 0,0.2578125 -0.070312,0.5390625 -0.2109375,1.1132812 l -0.4101562,1.6289063 c -0.1757813,0.72656245 -0.5273438,1.38281245 -1.1601563,1.38281245 -0.058594,0 -0.3515625,0 -0.60937495,-0.15234375 C 1.24175,-0.364625 1.3355,-0.7161875 1.3355,-0.8568125 c 0,-0.2460937 -0.1757813,-0.3867187 -0.3984375,-0.3867187 -0.29296875,0 -0.59765625,0.2460937 -0.59765625,0.63281245 0,0.50390625 0.5625,0.7265625 1.06640625,0.7265625 0.5742187,0 0.984375,-0.45703125 1.2304687,-0.9375 0.1992188,0.703125 0.796875,0.9375 1.2304688,0.9375 1.2304687,0 1.875,-1.55859375 1.875,-1.82812495 0,-0.058594 -0.046875,-0.1054688 -0.1289063,-0.1054688 -0.1054687,0 -0.1171875,0.058594 -0.1523437,0.1523438 -0.3164063,1.05468745 -1.0195313,1.54687495 -1.546875,1.54687495 -0.421875,0 -0.65625,-0.31640625 -0.65625,-0.80859375 0,-0.2578125 0.058594,-0.4453125 0.2460937,-1.2421875 L 3.9253437,-3.7865 c 0.1757813,-0.7265625 0.5859375,-1.2421875 1.125,-1.2421875 0.035156,0 0.3632813,0 0.609375,0.1523438 z m 0,0"
       style="fill:#ff0000;fill-opacity:1;fill-rule:nonzero;stroke:none"
       aria-label="x"
       transform="matrix(1.3333333,0,0,1.3333333,255.46933,148.29867)" />
  </g>
</svg>
